%TF.GenerationSoftware,KiCad,Pcbnew,9.0.2*%
%TF.CreationDate,2025-07-31T21:38:40-05:00*%
%TF.ProjectId,QuiverAttachPCB,51756976-6572-4417-9474-616368504342,rev?*%
%TF.SameCoordinates,Original*%
%TF.FileFunction,Copper,L2,Bot*%
%TF.FilePolarity,Positive*%
%FSLAX46Y46*%
G04 Gerber Fmt 4.6, Leading zero omitted, Abs format (unit mm)*
G04 Created by KiCad (PCBNEW 9.0.2) date 2025-07-31 21:38:40*
%MOMM*%
%LPD*%
G01*
G04 APERTURE LIST*
%TA.AperFunction,SMDPad,CuDef*%
%ADD10R,1.092200X4.902200*%
%TD*%
%TA.AperFunction,SMDPad,CuDef*%
%ADD11R,0.812800X1.600200*%
%TD*%
%TA.AperFunction,ViaPad*%
%ADD12C,0.600000*%
%TD*%
%TA.AperFunction,ViaPad*%
%ADD13C,0.900000*%
%TD*%
%TA.AperFunction,Conductor*%
%ADD14C,0.500000*%
%TD*%
%TA.AperFunction,Conductor*%
%ADD15C,0.200000*%
%TD*%
G04 APERTURE END LIST*
D10*
%TO.P,J1,14*%
%TO.N,N/C*%
X104525000Y-132296174D03*
%TO.P,J1,13*%
X115475000Y-132296174D03*
D11*
%TO.P,J1,12,12*%
%TO.N,FMU_CH1*%
X113125000Y-137346301D03*
%TO.P,J1,11,11*%
%TO.N,CAN1_P*%
X113125000Y-128646298D03*
%TO.P,J1,10,10*%
%TO.N,+12V*%
X111875000Y-137346301D03*
%TO.P,J1,9,9*%
%TO.N,CAN1_N*%
X111875000Y-128646298D03*
%TO.P,J1,8,8*%
%TO.N,GND*%
X110625000Y-137346301D03*
%TO.P,J1,7,7*%
%TO.N,ETH_TX-*%
X110625000Y-128646298D03*
%TO.P,J1,6,6*%
%TO.N,GND*%
X109375000Y-137346301D03*
%TO.P,J1,5,5*%
%TO.N,ETH_TX+*%
X109375000Y-128646298D03*
%TO.P,J1,4,4*%
%TO.N,12VSW*%
X108125000Y-137346301D03*
%TO.P,J1,3,3*%
%TO.N,ETH_RX-*%
X108125000Y-128646298D03*
%TO.P,J1,2,2*%
%TO.N,12VSW*%
X106875000Y-137346301D03*
%TO.P,J1,1,1*%
%TO.N,ETH_RX+*%
X106875000Y-128646298D03*
%TD*%
D12*
%TO.N,CAN1_N*%
X115250000Y-128000000D03*
D13*
%TO.N,GND*%
X103000000Y-138000000D03*
D12*
%TO.N,ETH_TX+*%
X109908400Y-130387193D03*
%TO.N,12VSW*%
X105170000Y-138040000D03*
%TO.N,ETH_TX-*%
X112790000Y-130500000D03*
%TO.N,FMU_CH1*%
X114250000Y-139500000D03*
%TO.N,ETH_RX+*%
X105571102Y-130500000D03*
%TO.N,ETH_RX-*%
X107710000Y-130500000D03*
%TO.N,+12V*%
X111858469Y-136813681D03*
%TO.N,CAN1_P*%
X114250000Y-129250000D03*
%TO.N,GND*%
X106500000Y-139250000D03*
%TD*%
D14*
%TO.N,ETH_TX-*%
X110625000Y-129039998D02*
X110625000Y-129375000D01*
X111750000Y-130500000D02*
X112790000Y-130500000D01*
X110625000Y-129375000D02*
X111750000Y-130500000D01*
%TO.N,GND*%
X108771401Y-139250000D02*
X106500000Y-139250000D01*
X109408400Y-137658400D02*
X109720499Y-137346301D01*
X109720499Y-137346301D02*
X110625000Y-137346301D01*
%TO.N,12VSW*%
X106875000Y-137346301D02*
X108125000Y-137346301D01*
X106460000Y-136750000D02*
X105170000Y-138040000D01*
X106603548Y-136750000D02*
X106460000Y-136750000D01*
%TO.N,CAN1_N*%
X112500000Y-127250000D02*
X114500000Y-127250000D01*
X114500000Y-127250000D02*
X115250000Y-128000000D01*
X111875000Y-128646298D02*
X111875000Y-127875000D01*
X111875000Y-127875000D02*
X112500000Y-127250000D01*
%TO.N,ETH_TX+*%
X109908400Y-130387193D02*
X109408400Y-129887193D01*
X109408400Y-129887193D02*
X109408400Y-128679698D01*
X109408400Y-128679698D02*
X109375000Y-128646298D01*
%TO.N,ETH_RX-*%
X107710000Y-130500000D02*
X108158400Y-130051600D01*
X108158400Y-128679698D02*
X108125000Y-128646298D01*
X108158400Y-130051600D02*
X108158400Y-128679698D01*
D15*
%TO.N,ETH_TX-*%
X110625000Y-128646298D02*
X110625000Y-129039998D01*
D14*
%TO.N,CAN1_P*%
X113125000Y-128646298D02*
X113728702Y-129250000D01*
X113728702Y-129250000D02*
X114250000Y-129250000D01*
%TO.N,ETH_RX+*%
X105571102Y-130500000D02*
X106013249Y-130500000D01*
X106013249Y-130500000D02*
X106908400Y-129604849D01*
%TO.N,FMU_CH1*%
X113158400Y-138408400D02*
X114250000Y-139500000D01*
X113158400Y-138304852D02*
X113158400Y-138408400D01*
%TO.N,GND*%
X109375000Y-138646401D02*
X108771401Y-139250000D01*
X104250000Y-139250000D02*
X103000000Y-138000000D01*
X109375000Y-137346301D02*
X109375000Y-138646401D01*
X106500000Y-139250000D02*
X104250000Y-139250000D01*
%TD*%
%TA.AperFunction,Conductor*%
%TO.N,GND*%
G36*
X119558363Y-125620185D02*
G01*
X119579005Y-125636819D01*
X121213181Y-127270995D01*
X121246666Y-127332318D01*
X121249500Y-127358676D01*
X121249500Y-127828111D01*
X121229815Y-127895150D01*
X121177011Y-127940905D01*
X121107853Y-127950849D01*
X121044297Y-127921824D01*
X121037819Y-127915792D01*
X120977512Y-127855485D01*
X120977510Y-127855483D01*
X120786433Y-127716657D01*
X120575996Y-127609433D01*
X120351368Y-127536446D01*
X120118097Y-127499500D01*
X120118092Y-127499500D01*
X119881908Y-127499500D01*
X119881903Y-127499500D01*
X119648631Y-127536446D01*
X119424003Y-127609433D01*
X119213566Y-127716657D01*
X119116045Y-127787511D01*
X119022490Y-127855483D01*
X119022488Y-127855485D01*
X119022487Y-127855485D01*
X118855485Y-128022487D01*
X118855485Y-128022488D01*
X118855483Y-128022490D01*
X118819169Y-128072472D01*
X118716657Y-128213566D01*
X118609433Y-128424003D01*
X118536446Y-128648631D01*
X118499500Y-128881902D01*
X118499500Y-129118097D01*
X118536446Y-129351368D01*
X118609433Y-129575996D01*
X118687515Y-129729239D01*
X118716657Y-129786433D01*
X118855483Y-129977510D01*
X119022490Y-130144517D01*
X119213567Y-130283343D01*
X119275144Y-130314718D01*
X119424003Y-130390566D01*
X119424005Y-130390566D01*
X119424008Y-130390568D01*
X119537743Y-130427523D01*
X119648631Y-130463553D01*
X119881903Y-130500500D01*
X119881908Y-130500500D01*
X120118097Y-130500500D01*
X120351368Y-130463553D01*
X120363334Y-130459665D01*
X120575992Y-130390568D01*
X120786433Y-130283343D01*
X120977510Y-130144517D01*
X121037819Y-130084208D01*
X121099142Y-130050723D01*
X121168834Y-130055707D01*
X121224767Y-130097579D01*
X121249184Y-130163043D01*
X121249500Y-130171889D01*
X121249500Y-135828111D01*
X121229815Y-135895150D01*
X121177011Y-135940905D01*
X121107853Y-135950849D01*
X121044297Y-135921824D01*
X121037819Y-135915792D01*
X120977512Y-135855485D01*
X120977510Y-135855483D01*
X120786433Y-135716657D01*
X120575996Y-135609433D01*
X120351368Y-135536446D01*
X120118097Y-135499500D01*
X120118092Y-135499500D01*
X119881908Y-135499500D01*
X119881903Y-135499500D01*
X119648631Y-135536446D01*
X119424003Y-135609433D01*
X119213566Y-135716657D01*
X119104550Y-135795862D01*
X119022490Y-135855483D01*
X119022488Y-135855485D01*
X119022487Y-135855485D01*
X118855485Y-136022487D01*
X118855485Y-136022488D01*
X118855483Y-136022490D01*
X118795862Y-136104550D01*
X118716657Y-136213566D01*
X118609433Y-136424003D01*
X118536446Y-136648631D01*
X118499500Y-136881902D01*
X118499500Y-137118097D01*
X118536446Y-137351368D01*
X118609433Y-137575996D01*
X118673630Y-137701988D01*
X118716657Y-137786433D01*
X118855483Y-137977510D01*
X119022490Y-138144517D01*
X119213567Y-138283343D01*
X119312991Y-138334002D01*
X119424003Y-138390566D01*
X119424005Y-138390566D01*
X119424008Y-138390568D01*
X119526605Y-138423904D01*
X119648631Y-138463553D01*
X119881903Y-138500500D01*
X119881908Y-138500500D01*
X120118097Y-138500500D01*
X120351368Y-138463553D01*
X120575992Y-138390568D01*
X120786433Y-138283343D01*
X120977510Y-138144517D01*
X121037819Y-138084208D01*
X121099142Y-138050723D01*
X121168834Y-138055707D01*
X121224767Y-138097579D01*
X121249184Y-138163043D01*
X121249500Y-138171889D01*
X121249500Y-138641324D01*
X121229815Y-138708363D01*
X121213181Y-138729005D01*
X119579005Y-140363181D01*
X119517682Y-140396666D01*
X119491324Y-140399500D01*
X100508676Y-140399500D01*
X100441637Y-140379815D01*
X100420995Y-140363181D01*
X98786819Y-138729005D01*
X98753334Y-138667682D01*
X98750500Y-138641324D01*
X98750500Y-138171889D01*
X98770185Y-138104850D01*
X98822989Y-138059095D01*
X98892147Y-138049151D01*
X98955703Y-138078176D01*
X98962181Y-138084208D01*
X99022490Y-138144517D01*
X99213567Y-138283343D01*
X99312991Y-138334002D01*
X99424003Y-138390566D01*
X99424005Y-138390566D01*
X99424008Y-138390568D01*
X99526605Y-138423904D01*
X99648631Y-138463553D01*
X99881903Y-138500500D01*
X99881908Y-138500500D01*
X100118097Y-138500500D01*
X100351368Y-138463553D01*
X100575992Y-138390568D01*
X100786433Y-138283343D01*
X100977510Y-138144517D01*
X101144517Y-137977510D01*
X101151772Y-137967525D01*
X104619500Y-137967525D01*
X104619500Y-138112475D01*
X104654779Y-138244136D01*
X104657017Y-138252488D01*
X104729488Y-138378011D01*
X104729490Y-138378013D01*
X104729491Y-138378015D01*
X104831985Y-138480509D01*
X104831986Y-138480510D01*
X104831988Y-138480511D01*
X104957511Y-138552982D01*
X104957512Y-138552982D01*
X104957515Y-138552984D01*
X105097525Y-138590500D01*
X105097528Y-138590500D01*
X105242472Y-138590500D01*
X105242475Y-138590500D01*
X105382485Y-138552984D01*
X105508015Y-138480509D01*
X105610509Y-138378015D01*
X105682984Y-138252485D01*
X105682985Y-138252478D01*
X105686029Y-138245133D01*
X105712907Y-138204905D01*
X106006420Y-137911393D01*
X106067742Y-137877909D01*
X106137434Y-137882893D01*
X106193367Y-137924765D01*
X106217784Y-137990229D01*
X106218100Y-137999075D01*
X106218100Y-138171079D01*
X106232632Y-138244136D01*
X106232633Y-138244140D01*
X106232634Y-138244141D01*
X106287999Y-138327002D01*
X106364341Y-138378011D01*
X106370860Y-138382367D01*
X106370864Y-138382368D01*
X106443921Y-138396900D01*
X106443924Y-138396901D01*
X106443926Y-138396901D01*
X107306076Y-138396901D01*
X107306077Y-138396900D01*
X107379140Y-138382367D01*
X107431111Y-138347641D01*
X107497786Y-138326764D01*
X107565166Y-138345248D01*
X107568850Y-138347616D01*
X107620860Y-138382367D01*
X107620862Y-138382367D01*
X107620864Y-138382368D01*
X107693921Y-138396900D01*
X107693924Y-138396901D01*
X107693926Y-138396901D01*
X108556076Y-138396901D01*
X108556077Y-138396900D01*
X108629140Y-138382367D01*
X108712001Y-138327002D01*
X108767366Y-138244141D01*
X108781900Y-138171075D01*
X108781900Y-136521527D01*
X108781900Y-136521524D01*
X108781899Y-136521522D01*
X111218100Y-136521522D01*
X111218100Y-138171079D01*
X111232632Y-138244136D01*
X111232633Y-138244140D01*
X111232634Y-138244141D01*
X111287999Y-138327002D01*
X111364341Y-138378011D01*
X111370860Y-138382367D01*
X111370864Y-138382368D01*
X111443921Y-138396900D01*
X111443924Y-138396901D01*
X111443926Y-138396901D01*
X112306076Y-138396901D01*
X112306077Y-138396900D01*
X112379140Y-138382367D01*
X112431111Y-138347641D01*
X112450185Y-138341668D01*
X112467194Y-138331162D01*
X112482847Y-138331441D01*
X112497786Y-138326764D01*
X112517063Y-138332052D01*
X112537052Y-138332409D01*
X112562170Y-138344426D01*
X112565166Y-138345248D01*
X112568837Y-138347607D01*
X112602792Y-138370294D01*
X112647596Y-138423904D01*
X112656420Y-138466287D01*
X112656839Y-138466232D01*
X112657579Y-138471855D01*
X112657900Y-138473395D01*
X112657900Y-138474292D01*
X112674954Y-138537939D01*
X112692008Y-138601587D01*
X112714951Y-138641324D01*
X112757900Y-138715714D01*
X112757902Y-138715716D01*
X113707089Y-139664903D01*
X113733965Y-139705121D01*
X113737015Y-139712482D01*
X113737016Y-139712485D01*
X113809491Y-139838015D01*
X113911985Y-139940509D01*
X113911986Y-139940510D01*
X113911988Y-139940511D01*
X114037511Y-140012982D01*
X114037512Y-140012982D01*
X114037515Y-140012984D01*
X114177525Y-140050500D01*
X114177528Y-140050500D01*
X114322472Y-140050500D01*
X114322475Y-140050500D01*
X114462485Y-140012984D01*
X114588015Y-139940509D01*
X114690509Y-139838015D01*
X114762984Y-139712485D01*
X114800500Y-139572475D01*
X114800500Y-139427525D01*
X114762984Y-139287515D01*
X114690509Y-139161985D01*
X114588015Y-139059491D01*
X114462485Y-138987016D01*
X114462482Y-138987015D01*
X114455121Y-138983965D01*
X114414903Y-138957089D01*
X113803380Y-138345566D01*
X113769895Y-138284243D01*
X113769444Y-138233692D01*
X113770504Y-138228367D01*
X113781900Y-138171075D01*
X113781900Y-136521527D01*
X113781900Y-136521524D01*
X113781899Y-136521522D01*
X113767367Y-136448465D01*
X113767366Y-136448461D01*
X113751024Y-136424003D01*
X113712001Y-136365600D01*
X113656635Y-136328606D01*
X113629139Y-136310234D01*
X113629135Y-136310233D01*
X113556077Y-136295701D01*
X113556074Y-136295701D01*
X112693926Y-136295701D01*
X112693923Y-136295701D01*
X112620864Y-136310233D01*
X112620857Y-136310236D01*
X112568889Y-136344959D01*
X112502211Y-136365836D01*
X112434831Y-136347350D01*
X112431111Y-136344959D01*
X112379142Y-136310236D01*
X112379135Y-136310233D01*
X112306077Y-136295701D01*
X112306074Y-136295701D01*
X112068635Y-136295701D01*
X112036542Y-136291476D01*
X111991396Y-136279379D01*
X111930944Y-136263181D01*
X111785994Y-136263181D01*
X111680396Y-136291476D01*
X111648303Y-136295701D01*
X111443923Y-136295701D01*
X111370864Y-136310233D01*
X111370860Y-136310234D01*
X111287999Y-136365600D01*
X111232633Y-136448461D01*
X111232632Y-136448465D01*
X111218100Y-136521522D01*
X108781899Y-136521522D01*
X108767367Y-136448465D01*
X108767366Y-136448461D01*
X108751024Y-136424003D01*
X108712001Y-136365600D01*
X108656635Y-136328606D01*
X108629139Y-136310234D01*
X108629135Y-136310233D01*
X108556077Y-136295701D01*
X108556074Y-136295701D01*
X107693926Y-136295701D01*
X107693923Y-136295701D01*
X107620864Y-136310233D01*
X107620857Y-136310236D01*
X107568889Y-136344959D01*
X107502211Y-136365836D01*
X107434831Y-136347350D01*
X107431111Y-136344959D01*
X107379142Y-136310236D01*
X107379135Y-136310233D01*
X107306077Y-136295701D01*
X107306074Y-136295701D01*
X106850594Y-136295701D01*
X106803143Y-136286263D01*
X106796736Y-136283609D01*
X106796734Y-136283608D01*
X106669440Y-136249500D01*
X106525892Y-136249500D01*
X106394107Y-136249500D01*
X106394105Y-136249500D01*
X106343048Y-136263180D01*
X106343049Y-136263181D01*
X106266814Y-136283608D01*
X106266812Y-136283608D01*
X106266812Y-136283609D01*
X106152686Y-136349500D01*
X106152683Y-136349502D01*
X105005093Y-137497091D01*
X104964873Y-137523968D01*
X104957515Y-137527016D01*
X104831988Y-137599489D01*
X104831982Y-137599493D01*
X104729493Y-137701982D01*
X104729488Y-137701988D01*
X104657017Y-137827511D01*
X104657016Y-137827515D01*
X104619500Y-137967525D01*
X101151772Y-137967525D01*
X101283343Y-137786433D01*
X101390568Y-137575992D01*
X101463553Y-137351368D01*
X101488929Y-137191150D01*
X101500500Y-137118097D01*
X101500500Y-136881902D01*
X101463553Y-136648631D01*
X101416810Y-136504773D01*
X101390568Y-136424008D01*
X101390566Y-136424005D01*
X101390566Y-136424003D01*
X101325192Y-136295701D01*
X101283343Y-136213567D01*
X101144517Y-136022490D01*
X100977510Y-135855483D01*
X100786433Y-135716657D01*
X100575996Y-135609433D01*
X100351368Y-135536446D01*
X100118097Y-135499500D01*
X100118092Y-135499500D01*
X99881908Y-135499500D01*
X99881903Y-135499500D01*
X99648631Y-135536446D01*
X99424003Y-135609433D01*
X99213566Y-135716657D01*
X99104550Y-135795862D01*
X99022490Y-135855483D01*
X99022488Y-135855485D01*
X99022487Y-135855485D01*
X98962181Y-135915792D01*
X98900858Y-135949277D01*
X98831166Y-135944293D01*
X98775233Y-135902421D01*
X98750816Y-135836957D01*
X98750500Y-135828111D01*
X98750500Y-130171889D01*
X98770185Y-130104850D01*
X98822989Y-130059095D01*
X98892147Y-130049151D01*
X98955703Y-130078176D01*
X98962181Y-130084208D01*
X99022490Y-130144517D01*
X99213567Y-130283343D01*
X99275144Y-130314718D01*
X99424003Y-130390566D01*
X99424005Y-130390566D01*
X99424008Y-130390568D01*
X99537743Y-130427523D01*
X99648631Y-130463553D01*
X99881903Y-130500500D01*
X99881908Y-130500500D01*
X100118097Y-130500500D01*
X100351368Y-130463553D01*
X100363334Y-130459665D01*
X100575992Y-130390568D01*
X100786433Y-130283343D01*
X100977510Y-130144517D01*
X101144517Y-129977510D01*
X101258668Y-129820395D01*
X103728400Y-129820395D01*
X103728400Y-134771952D01*
X103742932Y-134845009D01*
X103742933Y-134845013D01*
X103742934Y-134845014D01*
X103798299Y-134927875D01*
X103881160Y-134983240D01*
X103881164Y-134983241D01*
X103954221Y-134997773D01*
X103954224Y-134997774D01*
X103954226Y-134997774D01*
X105095776Y-134997774D01*
X105095777Y-134997773D01*
X105168840Y-134983240D01*
X105251701Y-134927875D01*
X105307066Y-134845014D01*
X105321600Y-134771948D01*
X105321600Y-131164665D01*
X105341285Y-131097626D01*
X105394089Y-131051871D01*
X105463247Y-131041927D01*
X105477691Y-131044890D01*
X105498627Y-131050500D01*
X105498629Y-131050500D01*
X105643574Y-131050500D01*
X105643577Y-131050500D01*
X105783587Y-131012984D01*
X105783590Y-131012981D01*
X105790940Y-131009938D01*
X105838391Y-131000500D01*
X106079139Y-131000500D01*
X106079141Y-131000500D01*
X106206435Y-130966392D01*
X106320563Y-130900500D01*
X106966223Y-130254839D01*
X107027544Y-130221356D01*
X107097235Y-130226340D01*
X107153169Y-130268211D01*
X107177586Y-130333676D01*
X107173677Y-130374614D01*
X107159500Y-130427523D01*
X107159500Y-130427525D01*
X107159500Y-130572475D01*
X107184266Y-130664901D01*
X107197017Y-130712488D01*
X107269488Y-130838011D01*
X107269490Y-130838013D01*
X107269491Y-130838015D01*
X107371985Y-130940509D01*
X107371986Y-130940510D01*
X107371988Y-130940511D01*
X107497511Y-131012982D01*
X107497512Y-131012982D01*
X107497515Y-131012984D01*
X107637525Y-131050500D01*
X107637528Y-131050500D01*
X107782472Y-131050500D01*
X107782475Y-131050500D01*
X107922485Y-131012984D01*
X108048015Y-130940509D01*
X108150509Y-130838015D01*
X108222984Y-130712485D01*
X108222985Y-130712478D01*
X108226029Y-130705133D01*
X108252905Y-130664907D01*
X108558899Y-130358915D01*
X108561977Y-130353585D01*
X108624792Y-130244786D01*
X108658900Y-130117492D01*
X108658900Y-129772724D01*
X108661760Y-129762980D01*
X108660494Y-129752904D01*
X108671439Y-129730018D01*
X108678585Y-129705685D01*
X108686258Y-129699035D01*
X108690641Y-129689873D01*
X108712222Y-129676537D01*
X108731389Y-129659930D01*
X108741439Y-129658484D01*
X108750080Y-129653146D01*
X108775441Y-129653595D01*
X108800547Y-129649986D01*
X108811645Y-129654237D01*
X108819938Y-129654385D01*
X108851772Y-129669610D01*
X108852780Y-129670283D01*
X108897590Y-129723888D01*
X108907900Y-129773392D01*
X108907900Y-129821301D01*
X108907900Y-129953085D01*
X108910605Y-129963181D01*
X108942008Y-130080380D01*
X108963435Y-130117492D01*
X109007900Y-130194507D01*
X109007902Y-130194509D01*
X109365489Y-130552096D01*
X109392365Y-130592314D01*
X109395415Y-130599675D01*
X109395416Y-130599678D01*
X109467891Y-130725208D01*
X109570385Y-130827702D01*
X109570386Y-130827703D01*
X109570388Y-130827704D01*
X109695911Y-130900175D01*
X109695912Y-130900175D01*
X109695915Y-130900177D01*
X109835925Y-130937693D01*
X109835928Y-130937693D01*
X109980872Y-130937693D01*
X109980875Y-130937693D01*
X110120885Y-130900177D01*
X110246415Y-130827702D01*
X110348909Y-130725208D01*
X110421384Y-130599678D01*
X110458900Y-130459668D01*
X110458900Y-130314718D01*
X110432993Y-130218033D01*
X110434656Y-130148189D01*
X110473818Y-130090326D01*
X110538046Y-130062821D01*
X110606948Y-130074407D01*
X110640449Y-130098263D01*
X111345159Y-130802972D01*
X111345169Y-130802983D01*
X111349499Y-130807313D01*
X111349500Y-130807314D01*
X111442686Y-130900500D01*
X111556814Y-130966392D01*
X111684107Y-131000500D01*
X111684108Y-131000500D01*
X112522711Y-131000500D01*
X112570162Y-131009938D01*
X112577513Y-131012983D01*
X112577515Y-131012984D01*
X112717525Y-131050500D01*
X112717528Y-131050500D01*
X112862472Y-131050500D01*
X112862475Y-131050500D01*
X113002485Y-131012984D01*
X113128015Y-130940509D01*
X113230509Y-130838015D01*
X113302984Y-130712485D01*
X113340500Y-130572475D01*
X113340500Y-130427525D01*
X113302984Y-130287515D01*
X113300575Y-130283343D01*
X113230511Y-130161988D01*
X113230506Y-130161982D01*
X113128017Y-130059493D01*
X113128011Y-130059488D01*
X113002488Y-129987017D01*
X113002489Y-129987017D01*
X112978365Y-129980553D01*
X112862475Y-129949500D01*
X112717525Y-129949500D01*
X112633519Y-129972009D01*
X112577513Y-129987016D01*
X112570162Y-129990062D01*
X112548238Y-129992418D01*
X112527331Y-129999414D01*
X112522711Y-129999500D01*
X112008675Y-129999500D01*
X111941636Y-129979815D01*
X111920994Y-129963181D01*
X111866392Y-129908579D01*
X111832907Y-129847256D01*
X111837891Y-129777564D01*
X111879763Y-129721631D01*
X111945227Y-129697214D01*
X111954073Y-129696898D01*
X112306076Y-129696898D01*
X112306077Y-129696897D01*
X112379140Y-129682364D01*
X112431111Y-129647638D01*
X112463341Y-129637546D01*
X112495380Y-129626827D01*
X112496592Y-129627134D01*
X112497786Y-129626761D01*
X112530354Y-129635695D01*
X112563106Y-129644000D01*
X112563959Y-129644914D01*
X112565166Y-129645245D01*
X112568850Y-129647613D01*
X112620860Y-129682364D01*
X112620862Y-129682364D01*
X112620864Y-129682365D01*
X112693921Y-129696897D01*
X112693924Y-129696898D01*
X112693926Y-129696898D01*
X113468526Y-129696898D01*
X113530525Y-129713510D01*
X113535516Y-129716392D01*
X113662810Y-129750500D01*
X113982711Y-129750500D01*
X114030162Y-129759938D01*
X114037513Y-129762983D01*
X114037515Y-129762984D01*
X114177525Y-129800500D01*
X114177528Y-129800500D01*
X114322472Y-129800500D01*
X114322475Y-129800500D01*
X114462485Y-129762984D01*
X114492400Y-129745712D01*
X114560297Y-129729239D01*
X114626325Y-129752090D01*
X114669517Y-129807010D01*
X114678400Y-129853099D01*
X114678400Y-134771952D01*
X114692932Y-134845009D01*
X114692933Y-134845013D01*
X114692934Y-134845014D01*
X114748299Y-134927875D01*
X114831160Y-134983240D01*
X114831164Y-134983241D01*
X114904221Y-134997773D01*
X114904224Y-134997774D01*
X114904226Y-134997774D01*
X116045776Y-134997774D01*
X116045777Y-134997773D01*
X116118840Y-134983240D01*
X116201701Y-134927875D01*
X116257066Y-134845014D01*
X116271600Y-134771948D01*
X116271600Y-129820400D01*
X116271600Y-129820397D01*
X116271599Y-129820395D01*
X116257067Y-129747338D01*
X116257066Y-129747334D01*
X116245496Y-129730018D01*
X116201701Y-129664473D01*
X116118840Y-129609108D01*
X116118839Y-129609107D01*
X116118835Y-129609106D01*
X116045777Y-129594574D01*
X116045774Y-129594574D01*
X114904226Y-129594574D01*
X114904222Y-129594574D01*
X114901092Y-129594882D01*
X114899469Y-129594574D01*
X114898134Y-129594574D01*
X114898134Y-129594320D01*
X114832447Y-129581858D01*
X114781741Y-129533789D01*
X114765072Y-129465936D01*
X114769171Y-129439392D01*
X114800500Y-129322475D01*
X114800500Y-129177525D01*
X114762984Y-129037515D01*
X114703682Y-128934802D01*
X114690511Y-128911988D01*
X114690506Y-128911982D01*
X114588017Y-128809493D01*
X114588011Y-128809488D01*
X114462488Y-128737017D01*
X114462489Y-128737017D01*
X114447367Y-128732965D01*
X114322475Y-128699500D01*
X114177525Y-128699500D01*
X114079108Y-128725870D01*
X114037510Y-128737017D01*
X114033461Y-128738695D01*
X114029770Y-128739091D01*
X114029665Y-128739120D01*
X114029660Y-128739103D01*
X114013586Y-128740831D01*
X113994857Y-128747817D01*
X113979557Y-128744488D01*
X113963992Y-128746162D01*
X113946117Y-128737214D01*
X113926584Y-128732965D01*
X113904291Y-128716277D01*
X113901513Y-128714886D01*
X113898330Y-128711814D01*
X113818219Y-128631703D01*
X113784734Y-128570380D01*
X113781900Y-128544022D01*
X113781900Y-127874500D01*
X113801585Y-127807461D01*
X113854389Y-127761706D01*
X113905900Y-127750500D01*
X114241324Y-127750500D01*
X114308363Y-127770185D01*
X114329005Y-127786819D01*
X114707089Y-128164903D01*
X114733965Y-128205121D01*
X114737015Y-128212482D01*
X114737016Y-128212485D01*
X114809491Y-128338015D01*
X114911985Y-128440509D01*
X114911986Y-128440510D01*
X114911988Y-128440511D01*
X115037511Y-128512982D01*
X115037512Y-128512982D01*
X115037515Y-128512984D01*
X115177525Y-128550500D01*
X115177528Y-128550500D01*
X115322472Y-128550500D01*
X115322475Y-128550500D01*
X115462485Y-128512984D01*
X115588015Y-128440509D01*
X115690509Y-128338015D01*
X115762984Y-128212485D01*
X115800500Y-128072475D01*
X115800500Y-127927525D01*
X115762984Y-127787515D01*
X115752978Y-127770185D01*
X115690511Y-127661988D01*
X115690506Y-127661982D01*
X115588017Y-127559493D01*
X115588015Y-127559491D01*
X115462485Y-127487016D01*
X115462482Y-127487015D01*
X115455121Y-127483965D01*
X115414903Y-127457089D01*
X114807316Y-126849502D01*
X114807314Y-126849500D01*
X114708910Y-126792686D01*
X114693187Y-126783608D01*
X114629539Y-126766554D01*
X114565892Y-126749500D01*
X112565892Y-126749500D01*
X112434107Y-126749500D01*
X112306812Y-126783608D01*
X112192686Y-126849500D01*
X112192683Y-126849502D01*
X111567688Y-127474497D01*
X111567687Y-127474499D01*
X111567686Y-127474500D01*
X111505740Y-127536446D01*
X111473722Y-127568464D01*
X111412398Y-127601948D01*
X111410234Y-127602399D01*
X111370863Y-127610230D01*
X111370857Y-127610233D01*
X111318889Y-127644956D01*
X111252211Y-127665833D01*
X111184831Y-127647347D01*
X111181111Y-127644956D01*
X111129142Y-127610233D01*
X111129135Y-127610230D01*
X111056077Y-127595698D01*
X111056074Y-127595698D01*
X110193926Y-127595698D01*
X110193923Y-127595698D01*
X110120864Y-127610230D01*
X110120857Y-127610233D01*
X110068889Y-127644956D01*
X110002211Y-127665833D01*
X109934831Y-127647347D01*
X109931111Y-127644956D01*
X109879142Y-127610233D01*
X109879135Y-127610230D01*
X109806077Y-127595698D01*
X109806074Y-127595698D01*
X108943926Y-127595698D01*
X108943923Y-127595698D01*
X108870864Y-127610230D01*
X108870857Y-127610233D01*
X108818889Y-127644956D01*
X108752211Y-127665833D01*
X108684831Y-127647347D01*
X108681111Y-127644956D01*
X108629142Y-127610233D01*
X108629135Y-127610230D01*
X108556077Y-127595698D01*
X108556074Y-127595698D01*
X107693926Y-127595698D01*
X107693923Y-127595698D01*
X107620864Y-127610230D01*
X107620857Y-127610233D01*
X107568889Y-127644956D01*
X107502211Y-127665833D01*
X107434831Y-127647347D01*
X107431111Y-127644956D01*
X107379142Y-127610233D01*
X107379135Y-127610230D01*
X107306077Y-127595698D01*
X107306074Y-127595698D01*
X106443926Y-127595698D01*
X106443923Y-127595698D01*
X106370864Y-127610230D01*
X106370860Y-127610231D01*
X106287999Y-127665597D01*
X106232633Y-127748458D01*
X106232632Y-127748462D01*
X106218100Y-127821519D01*
X106218100Y-129471076D01*
X106224458Y-129503039D01*
X106218231Y-129572630D01*
X106190522Y-129614911D01*
X105861680Y-129943754D01*
X105800357Y-129977239D01*
X105741908Y-129975848D01*
X105643577Y-129949500D01*
X105498627Y-129949500D01*
X105498622Y-129949500D01*
X105477691Y-129955109D01*
X105407841Y-129953445D01*
X105349979Y-129914282D01*
X105322477Y-129850053D01*
X105321600Y-129835334D01*
X105321600Y-129820397D01*
X105321599Y-129820395D01*
X105307067Y-129747338D01*
X105307066Y-129747334D01*
X105295496Y-129730018D01*
X105251701Y-129664473D01*
X105168840Y-129609108D01*
X105168839Y-129609107D01*
X105168835Y-129609106D01*
X105095777Y-129594574D01*
X105095774Y-129594574D01*
X103954226Y-129594574D01*
X103954223Y-129594574D01*
X103881164Y-129609106D01*
X103881160Y-129609107D01*
X103798299Y-129664473D01*
X103742933Y-129747334D01*
X103742932Y-129747338D01*
X103728400Y-129820395D01*
X101258668Y-129820395D01*
X101283343Y-129786433D01*
X101295291Y-129762984D01*
X101297825Y-129758012D01*
X101390566Y-129575996D01*
X101390566Y-129575995D01*
X101390568Y-129575992D01*
X101463553Y-129351368D01*
X101488929Y-129191150D01*
X101500500Y-129118097D01*
X101500500Y-128881902D01*
X101463553Y-128648631D01*
X101395930Y-128440511D01*
X101390568Y-128424008D01*
X101390566Y-128424005D01*
X101390566Y-128424003D01*
X101283342Y-128213566D01*
X101282557Y-128212485D01*
X101144517Y-128022490D01*
X100977510Y-127855483D01*
X100786433Y-127716657D01*
X100575996Y-127609433D01*
X100351368Y-127536446D01*
X100118097Y-127499500D01*
X100118092Y-127499500D01*
X99881908Y-127499500D01*
X99881903Y-127499500D01*
X99648631Y-127536446D01*
X99424003Y-127609433D01*
X99213566Y-127716657D01*
X99116045Y-127787511D01*
X99022490Y-127855483D01*
X99022488Y-127855485D01*
X99022487Y-127855485D01*
X98962181Y-127915792D01*
X98900858Y-127949277D01*
X98831166Y-127944293D01*
X98775233Y-127902421D01*
X98750816Y-127836957D01*
X98750500Y-127828111D01*
X98750500Y-127358676D01*
X98770185Y-127291637D01*
X98786819Y-127270995D01*
X100420995Y-125636819D01*
X100482318Y-125603334D01*
X100508676Y-125600500D01*
X119491324Y-125600500D01*
X119558363Y-125620185D01*
G37*
%TD.AperFunction*%
%TD*%
M02*
