%TF.GenerationSoftware,KiCad,Pcbnew,9.0.2*%
%TF.CreationDate,2025-07-31T21:38:41-05:00*%
%TF.ProjectId,QuiverAttachPCB,51756976-6572-4417-9474-616368504342,rev?*%
%TF.SameCoordinates,Original*%
%TF.FileFunction,Legend,Bot*%
%TF.FilePolarity,Positive*%
%FSLAX46Y46*%
G04 Gerber Fmt 4.6, Leading zero omitted, Abs format (unit mm)*
G04 Created by KiCad (PCBNEW 9.0.2) date 2025-07-31 21:38:41*
%MOMM*%
%LPD*%
G01*
G04 APERTURE LIST*
%ADD10C,0.300000*%
%ADD11C,0.187500*%
%ADD12C,0.150000*%
%ADD13C,0.508000*%
%ADD14C,0.152400*%
G04 APERTURE END LIST*
D10*
X115266917Y-126872257D02*
X114552632Y-126872257D01*
X115409774Y-127300828D02*
X114909774Y-125800828D01*
X114909774Y-125800828D02*
X114409774Y-127300828D01*
X113909775Y-127300828D02*
X113909775Y-126300828D01*
X113909775Y-126586542D02*
X113838346Y-126443685D01*
X113838346Y-126443685D02*
X113766918Y-126372257D01*
X113766918Y-126372257D02*
X113624060Y-126300828D01*
X113624060Y-126300828D02*
X113481203Y-126300828D01*
X112981204Y-127300828D02*
X112981204Y-126300828D01*
X112981204Y-126586542D02*
X112909775Y-126443685D01*
X112909775Y-126443685D02*
X112838347Y-126372257D01*
X112838347Y-126372257D02*
X112695489Y-126300828D01*
X112695489Y-126300828D02*
X112552632Y-126300828D01*
X111838347Y-127300828D02*
X111981204Y-127229400D01*
X111981204Y-127229400D02*
X112052633Y-127157971D01*
X112052633Y-127157971D02*
X112124061Y-127015114D01*
X112124061Y-127015114D02*
X112124061Y-126586542D01*
X112124061Y-126586542D02*
X112052633Y-126443685D01*
X112052633Y-126443685D02*
X111981204Y-126372257D01*
X111981204Y-126372257D02*
X111838347Y-126300828D01*
X111838347Y-126300828D02*
X111624061Y-126300828D01*
X111624061Y-126300828D02*
X111481204Y-126372257D01*
X111481204Y-126372257D02*
X111409776Y-126443685D01*
X111409776Y-126443685D02*
X111338347Y-126586542D01*
X111338347Y-126586542D02*
X111338347Y-127015114D01*
X111338347Y-127015114D02*
X111409776Y-127157971D01*
X111409776Y-127157971D02*
X111481204Y-127229400D01*
X111481204Y-127229400D02*
X111624061Y-127300828D01*
X111624061Y-127300828D02*
X111838347Y-127300828D01*
X110838347Y-126300828D02*
X110552633Y-127300828D01*
X110552633Y-127300828D02*
X110266918Y-126586542D01*
X110266918Y-126586542D02*
X109981204Y-127300828D01*
X109981204Y-127300828D02*
X109695490Y-126300828D01*
X108052632Y-126872257D02*
X107338347Y-126872257D01*
X108195489Y-127300828D02*
X107695489Y-125800828D01*
X107695489Y-125800828D02*
X107195489Y-127300828D01*
X106695490Y-127300828D02*
X106695490Y-126300828D01*
X106695490Y-125800828D02*
X106766918Y-125872257D01*
X106766918Y-125872257D02*
X106695490Y-125943685D01*
X106695490Y-125943685D02*
X106624061Y-125872257D01*
X106624061Y-125872257D02*
X106695490Y-125800828D01*
X106695490Y-125800828D02*
X106695490Y-125943685D01*
X105981204Y-127300828D02*
X105981204Y-126300828D01*
X105981204Y-126586542D02*
X105909775Y-126443685D01*
X105909775Y-126443685D02*
X105838347Y-126372257D01*
X105838347Y-126372257D02*
X105695489Y-126300828D01*
X105695489Y-126300828D02*
X105552632Y-126300828D01*
X119300828Y-131161653D02*
X120300828Y-131518796D01*
X120300828Y-131518796D02*
X119300828Y-131875939D01*
X120300828Y-133233082D02*
X120300828Y-132375939D01*
X120300828Y-132804510D02*
X118800828Y-132804510D01*
X118800828Y-132804510D02*
X119015114Y-132661653D01*
X119015114Y-132661653D02*
X119157971Y-132518796D01*
X119157971Y-132518796D02*
X119229400Y-132375939D01*
X120157971Y-133875938D02*
X120229400Y-133947367D01*
X120229400Y-133947367D02*
X120300828Y-133875938D01*
X120300828Y-133875938D02*
X120229400Y-133804510D01*
X120229400Y-133804510D02*
X120157971Y-133875938D01*
X120157971Y-133875938D02*
X120300828Y-133875938D01*
X118943685Y-134518796D02*
X118872257Y-134590224D01*
X118872257Y-134590224D02*
X118800828Y-134733082D01*
X118800828Y-134733082D02*
X118800828Y-135090224D01*
X118800828Y-135090224D02*
X118872257Y-135233082D01*
X118872257Y-135233082D02*
X118943685Y-135304510D01*
X118943685Y-135304510D02*
X119086542Y-135375939D01*
X119086542Y-135375939D02*
X119229400Y-135375939D01*
X119229400Y-135375939D02*
X119443685Y-135304510D01*
X119443685Y-135304510D02*
X120300828Y-134447367D01*
X120300828Y-134447367D02*
X120300828Y-135375939D01*
D11*
X117168535Y-131525735D02*
X117130440Y-131563831D01*
X117130440Y-131563831D02*
X117092345Y-131640021D01*
X117092345Y-131640021D02*
X117092345Y-131830497D01*
X117092345Y-131830497D02*
X117130440Y-131906688D01*
X117130440Y-131906688D02*
X117168535Y-131944783D01*
X117168535Y-131944783D02*
X117244726Y-131982878D01*
X117244726Y-131982878D02*
X117320916Y-131982878D01*
X117320916Y-131982878D02*
X117435202Y-131944783D01*
X117435202Y-131944783D02*
X117892345Y-131487640D01*
X117892345Y-131487640D02*
X117892345Y-131982878D01*
X117092345Y-132478117D02*
X117092345Y-132554307D01*
X117092345Y-132554307D02*
X117130440Y-132630498D01*
X117130440Y-132630498D02*
X117168535Y-132668593D01*
X117168535Y-132668593D02*
X117244726Y-132706688D01*
X117244726Y-132706688D02*
X117397107Y-132744783D01*
X117397107Y-132744783D02*
X117587583Y-132744783D01*
X117587583Y-132744783D02*
X117739964Y-132706688D01*
X117739964Y-132706688D02*
X117816154Y-132668593D01*
X117816154Y-132668593D02*
X117854250Y-132630498D01*
X117854250Y-132630498D02*
X117892345Y-132554307D01*
X117892345Y-132554307D02*
X117892345Y-132478117D01*
X117892345Y-132478117D02*
X117854250Y-132401926D01*
X117854250Y-132401926D02*
X117816154Y-132363831D01*
X117816154Y-132363831D02*
X117739964Y-132325736D01*
X117739964Y-132325736D02*
X117587583Y-132287640D01*
X117587583Y-132287640D02*
X117397107Y-132287640D01*
X117397107Y-132287640D02*
X117244726Y-132325736D01*
X117244726Y-132325736D02*
X117168535Y-132363831D01*
X117168535Y-132363831D02*
X117130440Y-132401926D01*
X117130440Y-132401926D02*
X117092345Y-132478117D01*
X117168535Y-133049545D02*
X117130440Y-133087641D01*
X117130440Y-133087641D02*
X117092345Y-133163831D01*
X117092345Y-133163831D02*
X117092345Y-133354307D01*
X117092345Y-133354307D02*
X117130440Y-133430498D01*
X117130440Y-133430498D02*
X117168535Y-133468593D01*
X117168535Y-133468593D02*
X117244726Y-133506688D01*
X117244726Y-133506688D02*
X117320916Y-133506688D01*
X117320916Y-133506688D02*
X117435202Y-133468593D01*
X117435202Y-133468593D02*
X117892345Y-133011450D01*
X117892345Y-133011450D02*
X117892345Y-133506688D01*
X117092345Y-134230498D02*
X117092345Y-133849546D01*
X117092345Y-133849546D02*
X117473297Y-133811450D01*
X117473297Y-133811450D02*
X117435202Y-133849546D01*
X117435202Y-133849546D02*
X117397107Y-133925736D01*
X117397107Y-133925736D02*
X117397107Y-134116212D01*
X117397107Y-134116212D02*
X117435202Y-134192403D01*
X117435202Y-134192403D02*
X117473297Y-134230498D01*
X117473297Y-134230498D02*
X117549488Y-134268593D01*
X117549488Y-134268593D02*
X117739964Y-134268593D01*
X117739964Y-134268593D02*
X117816154Y-134230498D01*
X117816154Y-134230498D02*
X117854250Y-134192403D01*
X117854250Y-134192403D02*
X117892345Y-134116212D01*
X117892345Y-134116212D02*
X117892345Y-133925736D01*
X117892345Y-133925736D02*
X117854250Y-133849546D01*
X117854250Y-133849546D02*
X117816154Y-133811450D01*
X117587583Y-134611451D02*
X117587583Y-135220975D01*
X117092345Y-135754308D02*
X117092345Y-135830498D01*
X117092345Y-135830498D02*
X117130440Y-135906689D01*
X117130440Y-135906689D02*
X117168535Y-135944784D01*
X117168535Y-135944784D02*
X117244726Y-135982879D01*
X117244726Y-135982879D02*
X117397107Y-136020974D01*
X117397107Y-136020974D02*
X117587583Y-136020974D01*
X117587583Y-136020974D02*
X117739964Y-135982879D01*
X117739964Y-135982879D02*
X117816154Y-135944784D01*
X117816154Y-135944784D02*
X117854250Y-135906689D01*
X117854250Y-135906689D02*
X117892345Y-135830498D01*
X117892345Y-135830498D02*
X117892345Y-135754308D01*
X117892345Y-135754308D02*
X117854250Y-135678117D01*
X117854250Y-135678117D02*
X117816154Y-135640022D01*
X117816154Y-135640022D02*
X117739964Y-135601927D01*
X117739964Y-135601927D02*
X117587583Y-135563831D01*
X117587583Y-135563831D02*
X117397107Y-135563831D01*
X117397107Y-135563831D02*
X117244726Y-135601927D01*
X117244726Y-135601927D02*
X117168535Y-135640022D01*
X117168535Y-135640022D02*
X117130440Y-135678117D01*
X117130440Y-135678117D02*
X117092345Y-135754308D01*
X117092345Y-136706689D02*
X117092345Y-136554308D01*
X117092345Y-136554308D02*
X117130440Y-136478117D01*
X117130440Y-136478117D02*
X117168535Y-136440022D01*
X117168535Y-136440022D02*
X117282821Y-136363832D01*
X117282821Y-136363832D02*
X117435202Y-136325736D01*
X117435202Y-136325736D02*
X117739964Y-136325736D01*
X117739964Y-136325736D02*
X117816154Y-136363832D01*
X117816154Y-136363832D02*
X117854250Y-136401927D01*
X117854250Y-136401927D02*
X117892345Y-136478117D01*
X117892345Y-136478117D02*
X117892345Y-136630498D01*
X117892345Y-136630498D02*
X117854250Y-136706689D01*
X117854250Y-136706689D02*
X117816154Y-136744784D01*
X117816154Y-136744784D02*
X117739964Y-136782879D01*
X117739964Y-136782879D02*
X117549488Y-136782879D01*
X117549488Y-136782879D02*
X117473297Y-136744784D01*
X117473297Y-136744784D02*
X117435202Y-136706689D01*
X117435202Y-136706689D02*
X117397107Y-136630498D01*
X117397107Y-136630498D02*
X117397107Y-136478117D01*
X117397107Y-136478117D02*
X117435202Y-136401927D01*
X117435202Y-136401927D02*
X117473297Y-136363832D01*
X117473297Y-136363832D02*
X117549488Y-136325736D01*
X117587583Y-137125737D02*
X117587583Y-137735261D01*
X117092345Y-138268594D02*
X117092345Y-138344784D01*
X117092345Y-138344784D02*
X117130440Y-138420975D01*
X117130440Y-138420975D02*
X117168535Y-138459070D01*
X117168535Y-138459070D02*
X117244726Y-138497165D01*
X117244726Y-138497165D02*
X117397107Y-138535260D01*
X117397107Y-138535260D02*
X117587583Y-138535260D01*
X117587583Y-138535260D02*
X117739964Y-138497165D01*
X117739964Y-138497165D02*
X117816154Y-138459070D01*
X117816154Y-138459070D02*
X117854250Y-138420975D01*
X117854250Y-138420975D02*
X117892345Y-138344784D01*
X117892345Y-138344784D02*
X117892345Y-138268594D01*
X117892345Y-138268594D02*
X117854250Y-138192403D01*
X117854250Y-138192403D02*
X117816154Y-138154308D01*
X117816154Y-138154308D02*
X117739964Y-138116213D01*
X117739964Y-138116213D02*
X117587583Y-138078117D01*
X117587583Y-138078117D02*
X117397107Y-138078117D01*
X117397107Y-138078117D02*
X117244726Y-138116213D01*
X117244726Y-138116213D02*
X117168535Y-138154308D01*
X117168535Y-138154308D02*
X117130440Y-138192403D01*
X117130440Y-138192403D02*
X117092345Y-138268594D01*
X117168535Y-138840022D02*
X117130440Y-138878118D01*
X117130440Y-138878118D02*
X117092345Y-138954308D01*
X117092345Y-138954308D02*
X117092345Y-139144784D01*
X117092345Y-139144784D02*
X117130440Y-139220975D01*
X117130440Y-139220975D02*
X117168535Y-139259070D01*
X117168535Y-139259070D02*
X117244726Y-139297165D01*
X117244726Y-139297165D02*
X117320916Y-139297165D01*
X117320916Y-139297165D02*
X117435202Y-139259070D01*
X117435202Y-139259070D02*
X117892345Y-138801927D01*
X117892345Y-138801927D02*
X117892345Y-139297165D01*
D12*
X110333333Y-132451118D02*
X110333333Y-133165403D01*
X110333333Y-133165403D02*
X110380952Y-133308260D01*
X110380952Y-133308260D02*
X110476190Y-133403499D01*
X110476190Y-133403499D02*
X110619047Y-133451118D01*
X110619047Y-133451118D02*
X110714285Y-133451118D01*
X109333333Y-133451118D02*
X109904761Y-133451118D01*
X109619047Y-133451118D02*
X109619047Y-132451118D01*
X109619047Y-132451118D02*
X109714285Y-132593975D01*
X109714285Y-132593975D02*
X109809523Y-132689213D01*
X109809523Y-132689213D02*
X109904761Y-132736832D01*
D13*
%TO.C,J1*%
X103421400Y-128646298D02*
G75*
G02*
X102659400Y-128646298I-381000J0D01*
G01*
X102659400Y-128646298D02*
G75*
G02*
X103421400Y-128646298I381000J0D01*
G01*
D14*
X116324600Y-137330700D02*
X113864140Y-137330700D01*
X116324600Y-134883670D02*
X116324600Y-137330700D01*
X116324600Y-128669300D02*
X116324600Y-129708677D01*
X113864140Y-128669300D02*
X116324600Y-128669300D01*
X106135860Y-137330700D02*
X103675400Y-137330700D01*
X103675400Y-137330700D02*
X103675400Y-134883670D01*
X103675400Y-129708677D02*
X103675400Y-128669300D01*
X103675400Y-128669300D02*
X106135860Y-128669300D01*
%TD*%
M02*
